<svg width="33" height="33" viewBox="0 0 33 33" fill="none" xmlns="http://www.w3.org/2000/svg">
<g id="icon phone 1">
<g id="Group">
<path id="Vector" d="M14.1027 8.8L9.58268 3.58249C9.0616 2.98124 8.10628 2.98391 7.50102 3.5905L3.78396 7.31424C2.67766 8.42188 2.361 10.0666 3.001 11.3854C6.82444 19.3018 13.2089 25.6952 21.12 29.5298C22.4374 30.1698 24.0808 29.8531 25.1871 28.7455L28.9389 24.987C29.5469 24.3791 29.5482 23.4184 28.9416 22.8973L23.704 18.4013C23.1562 17.931 22.3051 17.9924 21.756 18.5429L19.9335 20.368C19.8402 20.4658 19.7174 20.5303 19.5839 20.5515C19.4505 20.5728 19.3137 20.5496 19.1947 20.4856C16.2157 18.7702 13.7447 16.2959 12.0331 13.3147C11.969 13.1955 11.9458 13.0585 11.967 12.9248C11.9883 12.7911 12.0528 12.668 12.1507 12.5745L13.9678 10.7561C14.5183 10.2029 14.5784 9.34781 14.1027 8.79866V8.8Z" stroke="white" stroke-width="2.00417" stroke-linecap="round" stroke-linejoin="round"/>
</g>
</g>
</svg>
