<svg width="15" height="13" viewBox="0 0 15 13" fill="none" xmlns="http://www.w3.org/2000/svg">
<path id="author" d="M7.39491 0C6.05344 0 4.74209 0.381218 3.6267 1.09545C2.51131 1.80968 1.64196 2.82484 1.1286 4.01256C0.615243 5.20028 0.480925 6.50721 0.742634 7.76809C1.00434 9.02896 1.65032 10.1872 2.59889 11.0962C3.54745 12.0052 4.756 12.6243 6.07169 12.8751C7.38739 13.1259 8.75115 12.9972 9.99051 12.5052C11.2299 12.0132 12.2892 11.1801 13.0344 10.1112C13.7797 9.04228 14.1775 7.78558 14.1775 6.5C14.1741 4.77711 13.4584 3.12573 12.1871 1.90745C10.9159 0.689184 9.19271 0.00330373 7.39491 0ZM7.39491 12C6.25982 12 5.15022 11.6774 4.20643 11.0731C3.26263 10.4687 2.52703 9.60975 2.09265 8.60476C1.65827 7.59976 1.54462 6.4939 1.76606 5.427C1.98751 4.36011 2.53411 3.3801 3.33674 2.61091C4.13937 1.84172 5.16198 1.3179 6.27527 1.10568C7.38855 0.893462 8.5425 1.00238 9.59118 1.41866C10.6399 1.83494 11.5362 2.53989 12.1668 3.44436C12.7975 4.34883 13.134 5.4122 13.134 6.5C13.1323 7.95818 12.5271 9.35617 11.4512 10.3873C10.3753 11.4184 8.9165 11.9983 7.39491 12ZM5.30796 6.5C5.30796 6.91976 5.44578 7.32889 5.70189 7.66942C5.958 8.00995 6.31942 8.26462 6.73496 8.39737C7.1505 8.53011 7.59909 8.53419 8.01718 8.40903C8.43527 8.28387 8.80167 8.03581 9.06448 7.7C9.14854 7.59529 9.27199 7.52622 9.40846 7.50753C9.54493 7.48885 9.68362 7.52203 9.79492 7.6C9.90561 7.67956 9.9788 7.79801 9.99837 7.92929C10.0179 8.06056 9.98229 8.19391 9.89926 8.3C9.50505 8.80372 8.95545 9.1758 8.32831 9.36354C7.70117 9.55128 7.02829 9.54516 6.40498 9.34605C5.78168 9.14694 5.23954 8.76493 4.85537 8.25413C4.47121 7.74333 4.26448 7.12965 4.26448 6.5C4.26448 5.87035 4.47121 5.25667 4.85537 4.74587C5.23954 4.23507 5.78168 3.85306 6.40498 3.65395C7.02829 3.45484 7.70117 3.44872 8.32831 3.63646C8.95545 3.8242 9.50505 4.19628 9.89926 4.7C9.98229 4.80609 10.0179 4.93943 9.99837 5.07071C9.9788 5.20199 9.90561 5.32043 9.79492 5.4C9.68362 5.47796 9.54493 5.51115 9.40846 5.49246C9.27199 5.47378 9.14854 5.40471 9.06448 5.3C8.80167 4.96419 8.43527 4.71613 8.01718 4.59097C7.59909 4.46581 7.1505 4.46989 6.73496 4.60263C6.31942 4.73537 5.958 4.99005 5.70189 5.33058C5.44578 5.67111 5.30796 6.08023 5.30796 6.5Z" fill="white"/>
</svg>
