<svg width="33" height="33" viewBox="0 0 33 33" fill="none" xmlns="http://www.w3.org/2000/svg">
<g id="icon place">
<path id="Vector" d="M16.0308 16.3336C17.6254 16.3336 19.1547 15.7001 20.2823 14.5726C21.4099 13.445 22.0433 11.9157 22.0433 10.3211C22.0433 8.72649 21.4099 7.19719 20.2823 6.06963C19.1547 4.94207 17.6254 4.30861 16.0308 4.30861C14.4362 4.30861 12.9069 4.94207 11.7793 6.06963C10.6518 7.19719 10.0183 8.72649 10.0183 10.3211C10.0183 11.9157 10.6518 13.445 11.7793 14.5726C12.9069 15.7001 14.4362 16.3336 16.0308 16.3336ZM16.0308 18.3378C13.9047 18.3378 11.8656 17.4932 10.3622 15.9897C8.85877 14.4863 8.01416 12.4473 8.01416 10.3211C8.01416 8.19496 8.85877 6.15589 10.3622 4.65247C11.8656 3.14905 13.9047 2.30444 16.0308 2.30444C18.157 2.30444 20.196 3.14905 21.6995 4.65247C23.2029 6.15589 24.0475 8.19496 24.0475 10.3211C24.0475 12.4473 23.2029 14.4863 21.6995 15.9897C20.196 17.4932 18.157 18.3378 16.0308 18.3378Z" fill="white"/>
<path id="Vector_2" d="M16.0309 16.3333C16.2967 16.3333 16.5515 16.4388 16.7395 16.6268C16.9274 16.8147 17.033 17.0696 17.033 17.3353V25.352C17.033 25.6178 16.9274 25.8727 16.7395 26.0606C16.5515 26.2485 16.2967 26.3541 16.0309 26.3541C15.7651 26.3541 15.5102 26.2485 15.3223 26.0606C15.1344 25.8727 15.0288 25.6178 15.0288 25.352V17.3353C15.0288 17.0696 15.1344 16.8147 15.3223 16.6268C15.5102 16.4388 15.7651 16.3333 16.0309 16.3333Z" fill="white"/>
<path id="Vector_3" d="M12.0225 20.6267V22.6609C8.44509 23.2341 6.01003 24.4727 6.01003 25.3525C6.01003 26.533 10.3911 28.3588 16.0309 28.3588C21.6706 28.3588 26.0517 26.533 26.0517 25.3525C26.0517 24.4707 23.6166 23.2341 20.0392 22.6609V20.6267C24.7089 21.3141 28.0559 23.172 28.0559 25.3525C28.0559 28.1183 22.6727 30.363 16.0309 30.363C9.38905 30.363 4.00586 28.1183 4.00586 25.3525C4.00586 23.17 7.35282 21.3141 12.0225 20.6267Z" fill="white"/>
</g>
</svg>
