<svg width="15" height="24" viewBox="0 0 15 24" fill="none" xmlns="http://www.w3.org/2000/svg">
<path id="Vector" d="M14.4911 21.723L3.41168 11.7456L14.4911 1.76813C14.6894 1.58987 14.8005 1.35056 14.8005 1.10137C14.8005 0.852182 14.6894 0.612877 14.4911 0.434613C14.3947 0.348298 14.2797 0.279726 14.1528 0.232913C14.0259 0.1861 13.8896 0.161987 13.752 0.161987C13.6143 0.161987 13.4781 0.1861 13.3511 0.232913C13.2242 0.279726 13.1092 0.348298 13.0129 0.434613L1.22401 11.0489C1.01703 11.2353 0.901196 11.4853 0.901196 11.7456C0.901196 12.0059 1.01703 12.2559 1.22401 12.4423L13.0106 23.0566C13.107 23.1435 13.2223 23.2126 13.3496 23.2597C13.477 23.3069 13.6138 23.3312 13.752 23.3312C13.8902 23.3312 14.027 23.3069 14.1543 23.2597C14.2817 23.2126 14.3969 23.1435 14.4933 23.0566C14.6917 22.8783 14.8027 22.639 14.8027 22.3898C14.8027 22.1406 14.6917 21.9013 14.4933 21.723H14.4911Z" fill="white"/>
</svg>
