<svg width="15" height="24" viewBox="0 0 15 24" fill="none" xmlns="http://www.w3.org/2000/svg">
<path id="Vector" d="M0.508937 1.77013L11.5883 11.7476L0.508937 21.725C0.310585 21.9033 0.19954 22.1426 0.19954 22.3918C0.19954 22.641 0.310585 22.8803 0.508937 23.0586C0.605277 23.1449 0.720268 23.2134 0.847176 23.2603C0.974085 23.3071 1.11036 23.3312 1.24802 23.3312C1.38567 23.3312 1.52195 23.3071 1.64886 23.2603C1.77576 23.2134 1.89076 23.1449 1.9871 23.0586L13.776 12.4443C13.983 12.2579 14.0988 12.0079 14.0988 11.7476C14.0988 11.4873 13.983 11.2373 13.776 11.0509L1.98937 0.436613C1.89296 0.349688 1.77768 0.280598 1.65036 0.233423C1.52303 0.186247 1.38622 0.161943 1.24802 0.161943C1.10981 0.161943 0.973006 0.186247 0.845677 0.233423C0.718347 0.280598 0.603074 0.349688 0.506662 0.436613C0.30831 0.614876 0.197266 0.854183 0.197266 1.10337C0.197266 1.35256 0.30831 1.59187 0.506662 1.77013H0.508937Z" fill="white"/>
</svg>
