<svg width="23" height="22" viewBox="0 0 23 22" fill="none" xmlns="http://www.w3.org/2000/svg">
<g id="phone">
<g id="Group">
<path id="Vector" d="M10.1279 5.27194L6.83741 1.51088C6.45808 1.07746 5.76264 1.07939 5.32203 1.51666L2.61612 4.20093C1.81076 4.99937 1.58024 6.185 2.04614 7.13562C4.82949 12.8422 9.47723 17.4509 15.2362 20.2151C16.1953 20.6764 17.3916 20.4482 18.197 19.6497L20.9282 16.9404C21.3707 16.5022 21.3717 15.8097 20.9301 15.434L17.1173 12.1931C16.7186 11.854 16.099 11.8984 15.6992 12.2952L14.3725 13.6108C14.3046 13.6813 14.2152 13.7278 14.118 13.7431C14.0209 13.7584 13.9213 13.7417 13.8347 13.6956C11.6661 12.459 9.86721 10.6754 8.62125 8.5264C8.57459 8.44044 8.5577 8.34169 8.57316 8.24531C8.58862 8.14893 8.63558 8.06023 8.70685 7.99282L10.0296 6.68198C10.4304 6.28324 10.4742 5.66683 10.1279 5.27098V5.27194Z" stroke="#FDB505" stroke-width="2.01015" stroke-linecap="round" stroke-linejoin="round"/>
</g>
</g>
</svg>
