<svg width="207" height="118" viewBox="0 0 207 118" fill="none" xmlns="http://www.w3.org/2000/svg">
<g id="button 2">
<g id="Group">
<path id="Vector" d="M0.656738 97.7281V19.7965C0.656738 14.6293 3.36984 9.67376 8.1992 6.02001C13.0286 2.36626 19.5786 0.313599 26.4083 0.313599H180.918C187.748 0.313599 194.298 2.36626 199.127 6.02001C203.956 9.67376 206.669 14.6293 206.669 19.7965V97.7281C206.669 102.895 203.956 107.851 199.127 111.505C194.298 115.158 187.748 117.211 180.918 117.211H26.4083C19.5786 117.211 13.0286 115.158 8.1992 111.505C3.36984 107.851 0.656738 102.895 0.656738 97.7281ZM88.0834 30.4439C87.1207 29.9254 85.988 29.6173 84.8093 29.5534C83.6306 29.4895 82.4514 29.6723 81.4009 30.0818C80.3504 30.4913 79.4692 31.1116 78.8537 31.8748C78.2382 32.638 77.9122 33.5146 77.9115 34.4087V83.116C77.9122 84.01 78.2382 84.8867 78.8537 85.6499C79.4692 86.4131 80.3504 87.0334 81.4009 87.4428C82.4514 87.8523 83.6306 88.0351 84.8093 87.9712C85.988 87.9074 87.1207 87.5993 88.0834 87.0807L133.149 62.7271C133.983 62.2765 134.663 61.6817 135.133 60.9921C135.602 60.3024 135.847 59.538 135.847 58.7623C135.847 57.9866 135.602 57.2222 135.133 56.5326C134.663 55.8429 133.983 55.2481 133.149 54.7975L88.0834 30.4439Z" fill="black" fill-opacity="0.7"/>
</g>
</g>
</svg>
